<?xml version="1.0" standalone="no"?><!DOCTYPE svg PUBLIC "-//W3C//DTD SVG 1.1//EN" "http://www.w3.org/Graphics/SVG/1.1/DTD/svg11.dtd"><svg t="1730900499270" class="icon" viewBox="0 0 1024 1024" version="1.1" xmlns="http://www.w3.org/2000/svg" p-id="9532" xmlns:xlink="http://www.w3.org/1999/xlink" width="200" height="200"><path d="M522.9568 122.112L341.6576 228.7616 160.256 335.4624l-21.6576-36.8128h42.7008v426.7008h-42.7008l21.6576-36.8128 181.3504 106.7008 181.2992 106.6496-21.6064 36.7616-21.6576-36.7616 181.3504-106.6496 181.2992-106.7008 21.6576 36.8128h-42.6496V298.6496h42.6496l-21.6576 36.8128-181.2992-106.7008-181.3504-106.6496 21.6576-36.7616 21.6064 36.7616zM479.744 48.5376q4.9152-2.8672 10.4448-4.352 5.4784-1.536 11.2128-1.536 5.6832 0 11.2128 1.536 5.4784 1.4848 10.3936 4.352l181.3504 106.7008 181.3504 106.6496q4.7616 2.816 8.704 6.8096 3.8912 3.9424 6.656 8.8064 2.7648 4.8128 4.1984 10.24 1.4336 5.376 1.4336 10.9056v426.7008q0 5.5296-1.4336 10.9568-1.4336 5.376-4.1984 10.24-2.7648 4.8128-6.656 8.7552-3.9424 3.9936-8.704 6.8096l-181.3504 106.6496-181.3504 106.7008q-4.9152 2.8672-10.3936 4.352-5.5296 1.536-11.264 1.536-5.632 0-11.1616-1.536-5.5296-1.4848-10.4448-4.352l-181.2992-106.7008-181.3504-106.6496q-4.8128-2.816-8.704-6.8096-3.9424-3.9424-6.7072-8.8064-2.7648-4.8128-4.1984-10.24-1.4336-5.376-1.4336-10.9056V298.6496q0-5.5296 1.4336-10.9568 1.4336-5.376 4.1984-10.24 2.7648-4.8128 6.656-8.7552 3.9424-3.9936 8.704-6.8096l181.4016-106.6496L479.6928 48.5376z" fill="#165dff" p-id="9533"></path><path d="M455.3216 518.7072V92.0576q0-4.1984 0.8192-8.3456 0.8192-4.096 2.4064-7.9872 1.6384-3.8912 3.9424-7.3728 2.3552-3.4816 5.3248-6.4512 2.9696-2.9696 6.4512-5.3248 3.4816-2.3552 7.3728-3.9424 3.8912-1.5872 8.0384-2.4064 4.096-0.8192 8.2944-0.8192T506.368 50.176q4.096 0.8192 7.9872 2.4064t7.3728 3.9424q3.4816 2.3552 6.4512 5.3248 2.9696 2.9696 5.3248 6.4512 2.3552 3.4816 3.9424 7.3728 1.6384 3.8912 2.4576 7.9872t0.8192 8.3456v426.6496q0 4.1984-0.8192 8.3456-0.8192 4.096-2.4576 7.9872-1.5872 3.8912-3.9424 7.3728-2.3552 3.4816-5.3248 6.5024-2.9696 2.9696-6.4512 5.2736-3.4816 2.3552-7.3728 3.9424-3.8912 1.6384-7.9872 2.4576t-8.3456 0.8192q-4.1984 0-8.2944-0.8192t-8.0384-2.4576q-3.8912-1.5872-7.3728-3.9424-3.4816-2.304-6.4512-5.2736-2.9696-3.0208-5.3248-6.5024-2.304-3.4816-3.9424-7.3728-1.5872-3.8912-2.4064-7.9872t-0.8192-8.3456z m85.4016 0q0 4.1984-0.8192 8.3456-0.8192 4.096-2.4064 8.0384-1.6384 3.8912-3.9936 7.3728-2.304 3.5328-5.2736 6.5024-3.0208 2.9696-6.5024 5.3248-3.4816 2.304-7.3728 3.9424-3.8912 1.5872-8.0384 2.4064-4.096 0.8192-8.3456 0.8192-4.1984 0-8.3456-0.8192-4.096-0.8192-7.9872-2.4064-3.8912-1.6384-7.424-3.9424-3.4816-2.3552-6.4512-5.3248-2.9696-2.9696-5.3248-6.5024-2.3552-3.4816-3.9424-7.3728-1.6384-3.8912-2.4576-8.0384-0.8192-4.096-0.8192-8.3456 0-4.1984 0.8192-8.3456 0.8192-4.096 2.4576-7.9872 1.5872-3.8912 3.9424-7.424 2.3552-3.4816 5.3248-6.4512 2.9696-2.9696 6.4512-5.3248 3.5328-2.3552 7.424-3.9424 3.8912-1.6384 7.9872-2.4576 4.1472-0.8192 8.3456-0.8192t8.3456 0.8192q4.096 0.8192 8.0384 2.4576 3.8912 1.5872 7.3728 3.9424 3.4816 2.3552 6.5024 5.3248 2.9696 2.9696 5.2736 6.4512 2.3552 3.5328 3.9936 7.424 1.5872 3.8912 2.4064 7.9872 0.8192 4.1472 0.8192 8.3456z m0-426.6496q0 4.1984-0.8192 8.3456-0.8192 4.096-2.4064 7.9872-1.6384 3.8912-3.9936 7.424-2.304 3.4816-5.2736 6.4512-3.0208 2.9696-6.5024 5.3248-3.4816 2.3552-7.3728 3.9424-3.8912 1.6384-8.0384 2.4576-4.096 0.8192-8.3456 0.8192-4.1984 0-8.3456-0.8192-4.096-0.8192-7.9872-2.4576-3.8912-1.5872-7.424-3.9424-3.4816-2.3552-6.4512-5.3248-2.9696-2.9696-5.3248-6.4512-2.3552-3.5328-3.9424-7.424-1.6384-3.8912-2.4576-7.9872t-0.8192-8.3456q0-4.1984 0.8192-8.3456 0.8192-4.096 2.4576-8.0384 1.5872-3.8912 3.9424-7.3728 2.3552-3.4816 5.3248-6.5024 2.9696-2.9696 6.4512-5.2736 3.5328-2.3552 7.424-3.9936 3.8912-1.5872 7.9872-2.4064 4.1472-0.8192 8.3456-0.8192t8.3456 0.8192q4.096 0.8192 8.0384 2.4064 3.8912 1.6384 7.3728 3.9936 3.4816 2.304 6.5024 5.2736 2.9696 3.0208 5.2736 6.5024 2.3552 3.4816 3.9936 7.3728 1.5872 3.8912 2.4064 8.0384 0.8192 4.096 0.8192 8.3456z" fill="#165dff" p-id="9534"></path><path d="M522.9568 475.2384l362.6496 213.2992q3.6352 2.1504 6.7584 4.9664 3.1744 2.7648 5.6832 6.144 2.56 3.328 4.352 7.168 1.8432 3.7376 2.9184 7.8336 1.024 4.0448 1.28 8.192 0.256 4.2496-0.3584 8.3968-0.5632 4.1472-1.9456 8.1408-1.3824 3.9424-3.5328 7.5776-2.0992 3.584-4.9152 6.7584-2.816 3.1232-6.144 5.632-3.3792 2.56-7.168 4.4032-3.7376 1.8432-7.8336 2.8672-4.096 1.024-8.2432 1.3312-4.1984 0.2048-8.3968-0.3584-4.096-0.5632-8.0896-1.9456t-7.6288-3.584L479.744 548.8128q-3.584-2.0992-6.7584-4.9152-3.1232-2.816-5.632-6.144-2.56-3.3792-4.4032-7.168-1.792-3.7376-2.8672-7.8336-1.024-4.096-1.28-8.2432-0.256-4.1984 0.3072-8.3456 0.6144-4.1984 1.9968-8.192 1.3824-3.9424 3.4816-7.5776 2.1504-3.584 4.9664-6.7584 2.7648-3.072 6.144-5.632 3.328-2.56 7.168-4.352 3.7376-1.8432 7.7824-2.9184 4.096-1.024 8.2944-1.28 4.1984-0.256 8.3456 0.3584 4.1472 0.5632 8.1408 1.9456 3.9424 1.3824 7.5776 3.5328z m21.1456 36.7616q0 4.1984-0.8192 8.3456-0.8192 4.096-2.4576 8.0384-1.5872 3.8912-3.9424 7.3728-2.3552 3.4816-5.3248 6.4512-2.9696 3.0208-6.4512 5.3248-3.5328 2.3552-7.424 3.9424-3.8912 1.6384-7.9872 2.4576-4.1472 0.8192-8.3456 0.8192-4.2496 0-8.3456-0.8192t-8.0384-2.4576q-3.8912-1.5872-7.3728-3.9424-3.5328-2.304-6.5024-5.3248-2.9696-2.9696-5.3248-6.4512-2.304-3.4816-3.9424-7.3728-1.5872-3.8912-2.4064-8.0384-0.8192-4.096-0.8192-8.3456 0-4.1984 0.8192-8.3456 0.8192-4.096 2.4064-8.0384 1.6384-3.8912 3.9424-7.3728 2.3552-3.4816 5.3248-6.4512 2.9696-3.0208 6.5024-5.3248 3.4816-2.3552 7.3728-3.9424 3.8912-1.6384 8.0384-2.4576 4.096-0.8192 8.3456-0.8192 4.1984 0 8.3456 0.8192 4.096 0.8192 7.9872 2.4576 3.8912 1.5872 7.424 3.9424 3.4816 2.304 6.4512 5.3248 2.9696 2.9696 5.3248 6.4512 2.3552 3.4816 3.9424 7.3728 1.6384 3.8912 2.4576 8.0384 0.8192 4.096 0.8192 8.3456z m362.6496 213.3504q0 4.1984-0.8192 8.3456-0.8192 4.096-2.4576 7.9872-1.5872 3.8912-3.9424 7.424-2.304 3.4816-5.3248 6.4512-2.9696 2.9696-6.4512 5.3248-3.5328 2.3552-7.424 3.9424-3.84 1.6384-7.9872 2.4576-4.096 0.8192-8.3456 0.8192-4.1984 0-8.3456-0.8192-4.096-0.8192-8.0384-2.4576-3.8912-1.5872-7.3728-3.9424-3.4816-2.3552-6.4512-5.3248-3.0208-2.9696-5.3248-6.4512-2.3552-3.5328-3.9424-7.424-1.6384-3.8912-2.4576-7.9872-0.8192-4.1472-0.8192-8.3456 0-4.2496 0.8192-8.3456t2.4576-8.0384q1.5872-3.8912 3.9424-7.3728 2.304-3.5328 5.3248-6.5024 2.9696-2.9696 6.4512-5.3248 3.4816-2.304 7.3728-3.9424 3.8912-1.5872 8.0384-2.4064 4.096-0.8192 8.3456-0.8192 4.1984 0 8.3456 0.8192 4.096 0.8192 7.9872 2.4064 3.8912 1.6384 7.424 3.9424 3.4816 2.3552 6.4512 5.3248 3.0208 2.9696 5.3248 6.5024 2.3552 3.4816 3.9424 7.3728 1.6384 3.8912 2.4576 8.0384 0.8192 4.096 0.8192 8.3456z" fill="#165dff" p-id="9535"></path><path d="M522.9568 548.7616l-362.6496 213.3504q-3.584 2.1504-7.5776 3.5328-3.9936 1.3824-8.192 1.9456-4.096 0.5632-8.2944 0.3584-4.1984-0.256-8.2944-1.3312-4.096-1.024-7.8336-2.8672-3.7888-1.8432-7.168-4.352-3.328-2.56-6.144-5.632-2.7648-3.1744-4.9152-6.8096-2.1504-3.584-3.5328-7.5776-1.3824-3.9936-1.9456-8.1408t-0.3584-8.3456q0.256-4.1984 1.3312-8.2432 1.024-4.096 2.8672-7.8848 1.8432-3.7888 4.352-7.168 2.56-3.328 5.632-6.144 3.1744-2.7648 6.8096-4.9152l362.6496-213.2992q3.584-2.1504 7.5776-3.5328 3.9936-1.3824 8.192-1.9456 4.096-0.6144 8.2944-0.3584t8.2944 1.28q4.096 1.024 7.8336 2.9184 3.7888 1.792 7.168 4.352 3.328 2.56 6.144 5.632 2.7648 3.1744 4.9152 6.7584 2.1504 3.6352 3.5328 7.6288 1.3824 3.9424 1.9456 8.1408 0.5632 4.096 0.3584 8.3456-0.256 4.1984-1.3312 8.2432-1.024 4.096-2.8672 7.8336-1.8432 3.7888-4.352 7.168-2.56 3.328-5.632 6.144-3.1744 2.816-6.8096 4.9152z m21.1456-36.7616q0 4.1984-0.8192 8.3456-0.8192 4.096-2.4576 8.0384-1.5872 3.8912-3.9424 7.3728-2.3552 3.4816-5.3248 6.4512-2.9696 3.0208-6.4512 5.3248-3.5328 2.3552-7.424 3.9424-3.8912 1.6384-7.9872 2.4576-4.1472 0.8192-8.3456 0.8192-4.2496 0-8.3456-0.8192t-8.0384-2.4576q-3.8912-1.5872-7.3728-3.9424-3.5328-2.304-6.5024-5.3248-2.9696-2.9696-5.3248-6.4512-2.304-3.4816-3.9424-7.3728-1.5872-3.8912-2.4064-8.0384-0.8192-4.096-0.8192-8.3456 0-4.1984 0.8192-8.3456 0.8192-4.096 2.4064-8.0384 1.6384-3.8912 3.9424-7.3728 2.3552-3.4816 5.3248-6.4512 2.9696-3.0208 6.5024-5.3248 3.4816-2.3552 7.3728-3.9424 3.8912-1.6384 8.0384-2.4576 4.096-0.8192 8.3456-0.8192 4.1984 0 8.3456 0.8192 4.096 0.8192 7.9872 2.4576 3.8912 1.5872 7.424 3.9424 3.4816 2.304 6.4512 5.3248 2.9696 2.9696 5.3248 6.4512 2.3552 3.4816 3.9424 7.3728 1.6384 3.8912 2.4576 8.0384 0.8192 4.096 0.8192 8.3456z m-362.7008 213.3504q0 4.1984-0.8192 8.3456-0.8192 4.096-2.4064 7.9872-1.6384 3.8912-3.9424 7.424-2.3552 3.4816-5.3248 6.4512-2.9696 2.9696-6.5024 5.3248-3.4816 2.3552-7.3728 3.9424-3.8912 1.6384-8.0384 2.4576-4.096 0.8192-8.3456 0.8192-4.1984 0-8.3456-0.8192-4.096-0.8192-7.9872-2.4576-3.8912-1.5872-7.424-3.9424-3.4816-2.3552-6.4512-5.3248-2.9696-2.9696-5.3248-6.4512-2.3552-3.5328-3.9424-7.424-1.6384-3.8912-2.4576-7.9872-0.8192-4.1472-0.8192-8.3456 0-4.2496 0.8192-8.3456t2.4576-8.0384q1.5872-3.8912 3.9424-7.3728 2.3552-3.5328 5.3248-6.5024 2.9696-2.9696 6.4512-5.3248 3.5328-2.304 7.424-3.9424 3.8912-1.5872 7.9872-2.4064 4.1472-0.8192 8.3456-0.8192 4.2496 0 8.3456 0.8192t8.0384 2.4064q3.8912 1.6384 7.3728 3.9424 3.5328 2.3552 6.5024 5.3248 2.9696 2.9696 5.3248 6.5024 2.304 3.4816 3.9424 7.3728 1.5872 3.8912 2.4064 8.0384 0.8192 4.096 0.8192 8.3456zM540.672 725.3504v213.2992q0 4.1984-0.8192 8.3456-0.8192 4.096-2.4576 7.9872-1.5872 3.8912-3.9424 7.3728-2.3552 3.5328-5.3248 6.5024-2.9696 2.9696-6.4512 5.2736-3.4816 2.3552-7.3728 3.9424-3.8912 1.6384-7.9872 2.4576t-8.3456 0.8192q-4.1984 0-8.2944-0.8192t-8.0384-2.4576q-3.8912-1.5872-7.3728-3.9424-3.4816-2.304-6.4512-5.2736-2.9696-2.9696-5.3248-6.5024-2.304-3.4816-3.9424-7.3728-1.5872-3.8912-2.4064-7.9872t-0.8192-8.3456v-213.2992q0-4.1984 0.8192-8.3456 0.8192-4.096 2.4064-7.9872 1.6384-3.8912 3.9424-7.3728 2.3552-3.5328 5.3248-6.5024 2.9696-2.9696 6.4512-5.2736 3.4816-2.3552 7.3728-3.9424 3.8912-1.6384 8.0384-2.4576 4.096-0.8192 8.2944-0.8192t8.3456 0.8192q4.096 0.8192 7.9872 2.4576 3.8912 1.5872 7.3728 3.9424 3.4816 2.304 6.4512 5.2736 2.9696 2.9696 5.3248 6.5024 2.3552 3.4816 3.9424 7.3728 1.6384 3.8912 2.4576 7.9872t0.8192 8.3456z m0.0512 0q0 4.1984-0.8192 8.3456-0.8192 4.096-2.4064 7.9872-1.6384 3.8912-3.9936 7.424-2.304 3.4816-5.2736 6.4512-3.0208 2.9696-6.5024 5.3248-3.4816 2.3552-7.3728 3.9424-3.8912 1.6384-8.0384 2.4576-4.096 0.8192-8.3456 0.8192-4.1984 0-8.3456-0.8192-4.096-0.8192-7.9872-2.4576-3.8912-1.5872-7.424-3.9424-3.4816-2.3552-6.4512-5.3248-2.9696-2.9696-5.3248-6.4512-2.3552-3.5328-3.9424-7.424-1.6384-3.8912-2.4576-7.9872-0.8192-4.1472-0.8192-8.3456 0-4.2496 0.8192-8.3456t2.4576-8.0384q1.5872-3.8912 3.9424-7.3728 2.3552-3.5328 5.3248-6.5024 2.9696-2.9696 6.4512-5.3248 3.5328-2.304 7.424-3.9424 3.8912-1.5872 7.9872-2.4064 4.1472-0.8192 8.3456-0.8192t8.3456 0.8192q4.096 0.8192 8.0384 2.4064 3.8912 1.6384 7.3728 3.9424 3.4816 2.3552 6.5024 5.3248 2.9696 2.9696 5.2736 6.5024 2.3552 3.4816 3.9936 7.3728 1.5872 3.8912 2.4064 8.0384 0.8192 4.096 0.8192 8.3456z m0 213.2992q0 4.2496-0.8192 8.3456t-2.4064 8.0384q-1.6384 3.8912-3.9936 7.3728-2.304 3.5328-5.2736 6.5024-3.0208 2.9696-6.5024 5.3248-3.4816 2.304-7.3728 3.9424-3.8912 1.5872-8.0384 2.4064-4.096 0.8192-8.3456 0.8192-4.1984 0-8.3456-0.8192-4.096-0.8192-7.9872-2.4064-3.8912-1.6384-7.424-3.9424-3.4816-2.3552-6.4512-5.3248-2.9696-2.9696-5.3248-6.5024-2.3552-3.4816-3.9424-7.3728-1.6384-3.8912-2.4576-8.0384-0.8192-4.096-0.8192-8.3456 0-4.1984 0.8192-8.3456 0.8192-4.096 2.4576-7.9872 1.5872-3.8912 3.9424-7.424 2.3552-3.4816 5.3248-6.4512 2.9696-2.9696 6.4512-5.3248 3.5328-2.3552 7.424-3.9424 3.8912-1.6384 7.9872-2.4576 4.1472-0.8192 8.3456-0.8192t8.3456 0.8192q4.096 0.8192 8.0384 2.4576 3.8912 1.5872 7.3728 3.9424 3.4816 2.3552 6.5024 5.3248 2.9696 2.9696 5.2736 6.4512 2.3552 3.5328 3.9936 7.424 1.5872 3.8912 2.4064 7.9872 0.8192 4.1472 0.8192 8.3456zM670.72 369.152l170.6496-106.6496q3.584-2.2528 7.5264-3.7376 3.8912-1.4848 8.0384-2.2016 4.1472-0.6656 8.3456-0.512 4.1984 0.1024 8.2944 1.024 4.096 0.9728 7.936 2.6624 3.84 1.7408 7.2704 4.1984 3.4304 2.4064 6.2976 5.4784 2.8672 3.072 5.12 6.656 2.2016 3.584 3.6864 7.4752 1.536 3.9424 2.2016 8.0896 0.6656 4.096 0.512 8.3456-0.1024 4.1984-1.024 8.2944-0.9728 4.096-2.6624 7.936-1.7408 3.7888-4.1984 7.2192-2.4064 3.4304-5.4784 6.2976-3.072 2.8672-6.656 5.12l-170.6496 106.6496q-3.584 2.2528-7.4752 3.7376-3.9424 1.4848-8.0896 2.2016-4.096 0.6656-8.3456 0.512-4.1984-0.1024-8.2944-1.024-4.096-0.9728-7.936-2.7136-3.7888-1.6896-7.2192-4.096-3.4304-2.5088-6.2976-5.5296-2.9184-3.072-5.12-6.656-2.2528-3.584-3.7376-7.4752-1.4848-3.9424-2.1504-8.0896-0.7168-4.096-0.5632-8.3456 0.1024-4.1984 1.024-8.2944 1.024-4.096 2.7136-7.936 1.6896-3.7888 4.1472-7.2192 2.4576-3.4304 5.5296-6.2976 3.072-2.9184 6.6048-5.12z m65.3824 36.1984q0 4.1984-0.8192 8.3456-0.8192 4.096-2.4576 7.9872-1.5872 3.8912-3.9424 7.424-2.3552 3.4816-5.3248 6.4512-2.9696 2.9696-6.4512 5.3248-3.5328 2.3552-7.424 3.9424-3.8912 1.6384-7.9872 2.4576-4.1472 0.8192-8.3456 0.8192-4.2496 0-8.3456-0.8192t-8.0384-2.4576q-3.8912-1.5872-7.3728-3.9424-3.5328-2.3552-6.5024-5.3248-2.9696-2.9696-5.3248-6.4512-2.304-3.5328-3.9424-7.424-1.5872-3.8912-2.4064-7.9872-0.8192-4.1472-0.8192-8.3456 0-4.2496 0.8192-8.3456t2.4064-8.0384q1.6384-3.8912 3.9424-7.3728 2.3552-3.5328 5.3248-6.5024 2.9696-2.9696 6.5024-5.3248 3.4816-2.304 7.3728-3.9424 3.8912-1.5872 8.0384-2.4064 4.096-0.8192 8.3456-0.8192 4.1984 0 8.3456 0.8192 4.096 0.8192 7.9872 2.4064 3.8912 1.6384 7.424 3.9424 3.4816 2.3552 6.4512 5.3248 2.9696 2.9696 5.3248 6.5024 2.3552 3.4816 3.9424 7.3728 1.6384 3.8912 2.4576 8.0384 0.8192 4.096 0.8192 8.3456z m170.6496-106.7008q0 4.2496-0.8192 8.3456t-2.4576 8.0384q-1.5872 3.8912-3.9424 7.3728-2.304 3.5328-5.3248 6.5024-2.9696 2.9696-6.4512 5.3248-3.5328 2.304-7.424 3.9424-3.84 1.5872-7.9872 2.4064-4.096 0.8192-8.3456 0.8192-4.1984 0-8.3456-0.8192-4.096-0.8192-8.0384-2.4064-3.8912-1.6384-7.3728-3.9424-3.4816-2.3552-6.4512-5.3248-3.0208-2.9696-5.3248-6.5024-2.3552-3.4816-3.9424-7.3728-1.6384-3.8912-2.4576-8.0384-0.8192-4.096-0.8192-8.3456 0-4.1984 0.8192-8.3456 0.8192-4.096 2.4576-7.9872 1.5872-3.8912 3.9424-7.424 2.304-3.4816 5.3248-6.4512 2.9696-2.9696 6.4512-5.3248 3.4816-2.3552 7.3728-3.9424 3.8912-1.6384 8.0384-2.4576 4.096-0.8192 8.3456-0.8192 4.1984 0 8.3456 0.8192 4.096 0.8192 7.9872 2.4576 3.8912 1.5872 7.424 3.9424 3.4816 2.3552 6.4512 5.3248 3.0208 2.9696 5.3248 6.4512 2.3552 3.5328 3.9424 7.424 1.6384 3.8912 2.4576 7.9872 0.8192 4.1472 0.8192 8.3456zM286.72 441.4976L116.0704 334.848q-3.584-2.2528-6.656-5.12-3.072-2.8672-5.4784-6.2976-2.4576-3.4304-4.1472-7.2192-1.7408-3.84-2.7136-7.936-0.9216-4.096-1.024-8.2944-0.1536-4.1984 0.512-8.3456 0.7168-4.1472 2.2016-8.0896 1.536-3.9424 3.7376-7.4752 2.2016-3.584 5.12-6.656 2.8672-3.072 6.2976-5.4784 3.3792-2.4576 7.2192-4.1984 3.84-1.6896 7.936-2.6624 4.096-0.9216 8.2944-1.024 4.1984-0.1536 8.3456 0.512 4.096 0.7168 8.0896 2.2016 3.8912 1.536 7.4752 3.7376L331.9296 369.152q3.584 2.2016 6.656 5.12 3.072 2.8672 5.4784 6.2976 2.4576 3.4304 4.1984 7.2192 1.6896 3.84 2.6624 7.936 0.9216 4.096 1.024 8.2944 0.1536 4.1984-0.512 8.3456-0.7168 4.1472-2.2016 8.0896-1.536 3.9424-3.7376 7.4752-2.2016 3.584-5.12 6.656-2.8672 3.072-6.2464 5.4784-3.4304 2.4576-7.2704 4.1472-3.84 1.7408-7.936 2.7136-4.096 0.9216-8.2944 1.024-4.1984 0.1536-8.3456-0.512-4.096-0.7168-8.0896-2.2016-3.8912-1.536-7.4752-3.7376z m65.3824-36.1472q0 4.1984-0.8192 8.3456-0.8192 4.096-2.4576 7.9872-1.5872 3.8912-3.9424 7.424-2.3552 3.4816-5.3248 6.4512-2.9696 2.9696-6.4512 5.3248-3.5328 2.3552-7.424 3.9424-3.8912 1.6384-7.9872 2.4576-4.1472 0.8192-8.3456 0.8192-4.2496 0-8.3456-0.8192t-8.0384-2.4576q-3.8912-1.5872-7.3728-3.9424-3.5328-2.3552-6.5024-5.3248-2.9696-2.9696-5.3248-6.4512-2.304-3.5328-3.9424-7.424-1.5872-3.8912-2.4064-7.9872-0.8192-4.1472-0.8192-8.3456 0-4.2496 0.8192-8.3456t2.4064-8.0384q1.6384-3.8912 3.9424-7.3728 2.3552-3.5328 5.3248-6.5024 2.9696-2.9696 6.5024-5.3248 3.4816-2.304 7.3728-3.9424 3.8912-1.5872 8.0384-2.4064 4.096-0.8192 8.3456-0.8192 4.1984 0 8.3456 0.8192 4.096 0.8192 7.9872 2.4064 3.8912 1.6384 7.424 3.9424 3.4816 2.3552 6.4512 5.3248 2.9696 2.9696 5.3248 6.5024 2.3552 3.4816 3.9424 7.3728 1.6384 3.8912 2.4576 8.0384 0.8192 4.096 0.8192 8.3456zM181.4016 298.6496q0 4.2496-0.8192 8.3456t-2.4064 8.0384q-1.6384 3.8912-3.9424 7.3728-2.3552 3.5328-5.3248 6.5024-2.9696 2.9696-6.5024 5.3248-3.4816 2.304-7.3728 3.9424-3.8912 1.5872-8.0384 2.4064-4.096 0.8192-8.3456 0.8192-4.1984 0-8.3456-0.8192-4.096-0.8192-7.9872-2.4064-3.8912-1.6384-7.424-3.9424-3.4816-2.3552-6.4512-5.3248-2.9696-2.9696-5.3248-6.5024-2.3552-3.4816-3.9424-7.3728-1.6384-3.8912-2.4576-8.0384-0.8192-4.096-0.8192-8.3456 0-4.1984 0.8192-8.3456 0.8192-4.096 2.4576-7.9872 1.5872-3.8912 3.9424-7.424 2.3552-3.4816 5.3248-6.4512 2.9696-2.9696 6.4512-5.3248 3.5328-2.3552 7.424-3.9424 3.8912-1.6384 7.9872-2.4576 4.1472-0.8192 8.3456-0.8192 4.2496 0 8.3456 0.8192t8.0384 2.4576q3.8912 1.5872 7.3728 3.9424 3.5328 2.3552 6.5024 5.3248 2.9696 2.9696 5.3248 6.4512 2.304 3.5328 3.9424 7.424 1.5872 3.8912 2.4064 7.9872 0.8192 4.1472 0.8192 8.3456z" fill="#165dff" p-id="9536"></path></svg>