<?xml version="1.0" standalone="no"?><!DOCTYPE svg PUBLIC "-//W3C//DTD SVG 1.1//EN" "http://www.w3.org/Graphics/SVG/1.1/DTD/svg11.dtd"><svg t="1734875555949" class="icon" viewBox="0 0 1024 1024" version="1.1" xmlns="http://www.w3.org/2000/svg" p-id="6971" xmlns:xlink="http://www.w3.org/1999/xlink" width="200" height="200"><path d="M831.606784 909.924352H192.393216c-21.274624 0-38.520832-17.246208-38.520832-38.520832v103.835648c0 21.274624 17.246208 38.520832 38.520832 38.520832h639.215616c21.274624 0 38.520832-17.246208 38.520832-38.520832V871.40352c-0.002048 21.274624-17.248256 38.520832-38.52288 38.520832z" fill="#AAB1BA" p-id="6972"></path><path d="M153.872384 871.40352c0 21.274624 17.246208 38.520832 38.520832 38.520832h639.215616c21.274624 0 38.520832-17.246208 38.520832-38.520832V229.681152H153.872384V871.40352z" fill="#ECF4F7" p-id="6973"></path><path d="M758.933504 701.8496h-201.762816a12.158976 12.158976 0 0 1-12.158976-12.158976V562.95424a12.158976 12.158976 0 0 1 12.158976-12.158976h201.762816a12.158976 12.158976 0 0 1 12.158976 12.158976v126.736384a12.158976 12.158976 0 0 1-12.158976 12.158976zM460.826624 701.8496h-201.762816a12.158976 12.158976 0 0 1-12.158976-12.158976V326.299648a12.158976 12.158976 0 0 1 12.158976-12.158976h201.762816a12.158976 12.158976 0 0 1 12.158976 12.158976v363.390976a12.158976 12.158976 0 0 1-12.158976 12.158976zM758.933504 391.737344h-201.762816a12.158976 12.158976 0 0 1-12.158976-12.158976v-53.280768a12.158976 12.158976 0 0 1 12.158976-12.158976h201.762816a12.158976 12.158976 0 0 1 12.158976 12.158976v53.280768a12.158976 12.158976 0 0 1-12.158976 12.158976z" fill="#FDDF7F" p-id="6974"></path><path d="M870.127616 229.681152V138.473472c0-21.274624-17.246208-38.520832-38.520832-38.520832H192.393216c-21.274624 0-38.520832 17.246208-38.520832 38.520832v91.205632h716.255232z" fill="#83E1E5" p-id="6975"></path><path d="M438.480896 29.591552a10.24 10.24 0 0 1 10.24-10.24h9.111552V10.24a10.24 10.24 0 0 1 20.48 0v9.111552H487.424a10.24 10.24 0 0 1 0 20.48h-9.111552v9.111552a10.24 10.24 0 0 1-20.48 0v-9.111552h-9.111552a10.24 10.24 0 0 1-10.24-10.24zM105.316352 196.777984h-9.111552v-9.111552a10.24 10.24 0 0 0-20.48 0v9.111552h-9.111552a10.24 10.24 0 0 0 0 20.48h9.111552v9.111552a10.24 10.24 0 0 0 20.48 0v-9.111552h9.111552a10.24 10.24 0 0 0 0-20.48z m852.0704 87.662592h-9.111552v-9.111552a10.24 10.24 0 0 0-20.48 0v9.111552h-9.111552a10.24 10.24 0 0 0 0 20.48h9.111552v9.111552a10.24 10.24 0 0 0 20.48 0v-9.111552h9.111552a10.24 10.24 0 0 0 0-20.48z m-77.019136-145.967104v836.765696c0 26.886144-21.874688 48.760832-48.760832 48.760832H192.393216c-26.886144 0-48.760832-21.874688-48.760832-48.760832V138.473472c0-26.886144 21.874688-48.760832 48.760832-48.760832h639.213568c26.888192 0 48.760832 21.874688 48.760832 48.760832zM164.112384 871.40352c0 15.593472 12.68736 28.280832 28.280832 28.280832h639.213568c15.593472 0 28.280832-12.68736 28.280832-28.280832V239.919104H164.112384V871.40352z m0-732.930048v80.965632h695.775232V138.473472c0-15.593472-12.68736-28.280832-28.280832-28.280832H192.393216c-15.593472 0-28.280832 12.68736-28.280832 28.280832z m695.775232 836.765696v-2.863104H303.243264a10.24 10.24 0 0 1 0-20.48h556.644352v-40.790016c-0.104448 0.075776-0.219136 0.139264-0.323584 0.212992a48.72192 48.72192 0 0 1-2.732032 1.800192l-0.096256 0.055296a62.803968 62.803968 0 0 1-3.438592 1.88416c-0.970752 0.483328-1.95584 0.94208-2.961408 1.36192-0.147456 0.06144-0.299008 0.116736-0.446464 0.176128-0.919552 0.372736-1.851392 0.7168-2.797568 1.03424-0.200704 0.067584-0.39936 0.139264-0.600064 0.202752-1.042432 0.335872-2.0992 0.63488-3.170304 0.899072-0.217088 0.053248-0.436224 0.100352-0.653312 0.151552-0.987136 0.229376-1.984512 0.432128-2.992128 0.600064-0.149504 0.024576-0.29696 0.057344-0.448512 0.079872-1.10592 0.17408-2.224128 0.303104-3.352576 0.401408-0.258048 0.022528-0.518144 0.04096-0.776192 0.059392-1.155072 0.08192-2.31424 0.139264-3.489792 0.139264H192.393216c-1.175552 0-2.336768-0.057344-3.489792-0.139264a47.638528 47.638528 0 0 1-4.128768-0.4608l-0.448512-0.079872a48.314368 48.314368 0 0 1-2.992128-0.600064c-0.217088-0.0512-0.436224-0.098304-0.653312-0.151552a48.398336 48.398336 0 0 1-3.170304-0.899072c-0.202752-0.065536-0.39936-0.137216-0.600064-0.202752a48.545792 48.545792 0 0 1-2.797568-1.03424c-0.147456-0.059392-0.299008-0.114688-0.446464-0.176128a49.047552 49.047552 0 0 1-2.961408-1.36192c-0.21504-0.106496-0.428032-0.219136-0.641024-0.329728-0.950272-0.49152-1.886208-1.00352-2.797568-1.554432l-0.096256-0.055296a49.481728 49.481728 0 0 1-2.732032-1.800192c-0.106496-0.073728-0.219136-0.139264-0.323584-0.212992v40.790016h47.7696a10.24 10.24 0 0 1 0 20.48H164.112384v2.863104c0 15.593472 12.68736 28.280832 28.280832 28.280832h639.213568c15.593472 0 28.280832-12.68736 28.280832-28.280832zM236.664832 689.690624V326.299648c0-12.351488 10.047488-22.398976 22.398976-22.398976h201.762816c12.351488 0 22.398976 10.047488 22.398976 22.398976v108.21632h228.845568a10.24 10.24 0 0 1 0 20.48H483.2256v32.538624h228.845568a10.24 10.24 0 0 1 0 20.48H483.2256v181.673984c0 12.351488-10.047488 22.398976-22.398976 22.398976h-201.762816c-12.351488 0.002048-22.398976-10.047488-22.398976-22.396928z m20.48 0c0 1.058816 0.86016 1.918976 1.918976 1.918976h201.762816c1.058816 0 1.918976-0.86016 1.918976-1.918976v-181.673984h-35.442688a10.24 10.24 0 0 1 0-20.48h35.442688v-32.538624h-35.442688a10.24 10.24 0 0 1 0-20.48h35.442688v-108.21632a1.921024 1.921024 0 0 0-1.918976-1.918976h-201.762816a1.921024 1.921024 0 0 0-1.918976 1.918976v363.388928z m277.62688-310.112256v-53.27872c0-12.351488 10.047488-22.398976 22.398976-22.398976h201.762816c12.351488 0 22.398976 10.047488 22.398976 22.398976v53.27872c0 12.351488-10.047488 22.398976-22.398976 22.398976h-201.762816c-12.351488 0-22.398976-10.047488-22.398976-22.398976z m20.48 0c0 1.058816 0.86016 1.918976 1.918976 1.918976h201.762816c1.058816 0 1.918976-0.86016 1.918976-1.918976v-53.27872a1.921024 1.921024 0 0 0-1.918976-1.918976h-201.762816a1.921024 1.921024 0 0 0-1.918976 1.918976v53.27872zM781.33248 562.95424v126.736384c0 12.351488-10.047488 22.398976-22.398976 22.398976h-201.762816c-12.351488 0-22.398976-10.047488-22.398976-22.398976V562.95424c0-12.351488 10.047488-22.398976 22.398976-22.398976h201.762816c12.351488 0 22.398976 10.047488 22.398976 22.398976z m-20.48 0a1.921024 1.921024 0 0 0-1.918976-1.918976h-201.762816a1.921024 1.921024 0 0 0-1.918976 1.918976v126.736384c0 1.058816 0.86016 1.918976 1.918976 1.918976h201.762816c1.058816 0 1.918976-0.86016 1.918976-1.918976V562.95424z m10.24-128.436224h-17.006592a10.24 10.24 0 0 0 0 20.48h17.006592a10.24 10.24 0 0 0 0-20.48z m0 53.018624h-17.006592a10.24 10.24 0 0 0 0 20.48h17.006592a10.24 10.24 0 0 0 0-20.48z m-524.187648 281.9072H771.09248a10.24 10.24 0 0 0 0-20.48H246.904832a10.24 10.24 0 0 0 0 20.48z m0 57.352192H771.09248a10.24 10.24 0 0 0 0-20.48H246.904832a10.24 10.24 0 0 0 0 20.48zM197.96992 164.816896c0-18.245632 14.843904-33.089536 33.089536-33.089536s33.089536 14.843904 33.089536 33.089536-14.843904 33.087488-33.089536 33.087488-33.089536-14.841856-33.089536-33.087488z m20.48 0c0 6.95296 5.656576 12.607488 12.609536 12.607488s12.609536-5.656576 12.609536-12.607488c0-6.95296-5.656576-12.609536-12.609536-12.609536s-12.609536 5.656576-12.609536 12.609536z m69.863424 0c0-18.245632 14.843904-33.089536 33.087488-33.089536s33.089536 14.843904 33.089536 33.089536-14.843904 33.087488-33.089536 33.087488-33.087488-14.841856-33.087488-33.087488z m20.48 0a12.621824 12.621824 0 0 0 12.607488 12.607488 12.623872 12.623872 0 0 0 12.609536-12.607488 12.623872 12.623872 0 0 0-12.609536-12.609536 12.623872 12.623872 0 0 0-12.607488 12.609536z m69.863424 0c0-18.245632 14.843904-33.089536 33.089536-33.089536s33.087488 14.843904 33.087488 33.089536-14.843904 33.087488-33.087488 33.087488-33.089536-14.841856-33.089536-33.087488z m20.48 0a12.621824 12.621824 0 0 0 12.609536 12.607488 12.621824 12.621824 0 0 0 12.607488-12.607488 12.623872 12.623872 0 0 0-12.607488-12.609536 12.623872 12.623872 0 0 0-12.609536 12.609536z m133.369856 10.24h264.261632a10.24 10.24 0 0 0 0-20.48H532.506624a10.24 10.24 0 0 0 0 20.48z m-42.514432 0h10.504192a10.24 10.24 0 0 0 0-20.48h-10.504192a10.24 10.24 0 0 0 0 20.48zM261.113856 951.894016h-11.360256a10.24 10.24 0 0 0 0 20.48h11.360256a10.24 10.24 0 0 0 0-20.48z" fill="#1C1D21" p-id="6976"></path></svg>